<svg width="19" height="16" viewBox="0 0 19 16" fill="none" xmlns="http://www.w3.org/2000/svg">
<path fill-rule="evenodd" clip-rule="evenodd" d="M15.9261 9.67975L13.6477 10.2507L15.0252 7.93383L16.9457 7.99493L18.0212 12.1852L17.2443 12.5029L15.9261 9.67975ZM14.5468 3.54806L14.4368 7.45195L12.972 9.76006L12.7677 15.9948H12.0117L11.2069 10.2577L6.60286 10.3135L4.5741 12.145L4.2511 15.9214L3.27862 15.9529L3.0726 11.2685L4.45363 8.23936L4.46934 5.67809C3.74653 5.27827 2.6431 5.3289 2.6431 8.60252L0.453714 9.12629C-0.429724 3.71392 3.79891 3.42235 5.20612 4.95178L9.84155 5.01115C9.84155 3.0365 11.9175 -1.66527 17.1884 0.606176L17.5079 5.49477L16.1775 5.96966L14.5468 3.54806ZM9.52205 10.9735L7.65566 12.2323L8.28943 15.876L7.35187 16L5.99004 11.8779L6.51382 11.0363L9.52205 10.9735Z" fill="currentColor"/>
</svg>
