<svg width="101" height="54" viewBox="0 0 101 54" fill="none" xmlns="http://www.w3.org/2000/svg">
<g clip-path="url(#clip0_15_118)">
<g clip-path="url(#clip1_15_118)">
<mask id="mask0_15_118" style="mask-type:luminance" maskUnits="userSpaceOnUse" x="0" y="0" width="101" height="54">
<path d="M101 0.0666676H0V53.9333H101V0.0666676Z" fill="white"/>
</mask>
<g mask="url(#mask0_15_118)">
<path d="M0 20.2359H15.2639V11.873L28.7551 11.8239L42.2218 11.7501L42.2957 5.89607L42.3449 0.0666676H0V20.2359Z" fill="white"/>
<path d="M49.4844 20.2359H64.9944V0.0666676H49.4844V20.2359Z" fill="white"/>
<path d="M85.6746 20.2359H100.938V0.0666676H85.6746V20.2359Z" fill="white"/>
<path d="M0 53.9333H15.2639V35.7317H0V53.9333Z" fill="white"/>
<path d="M49.4844 53.9333H64.9944V35.7317H49.4844V53.9333Z" fill="white"/>
<path d="M85.6746 53.9333H100.938V35.7317H85.6746V53.9333Z" fill="white"/>
<path d="M0.0632324 31.5608V24.0843H4.964V25.3744H1.62941V27.3796H4.67359V28.6179H1.62941V31.5608H0.0632324Z" fill="white"/>
<path d="M7.77996 30.5246C8.13607 30.5246 8.4334 30.4261 8.67195 30.2293C8.91743 30.029 9.04015 29.775 9.04015 29.4676V29.0479L7.84219 29.1308C7.19567 29.1722 6.87241 29.4089 6.87241 29.8406C6.87241 30.0514 6.95539 30.2171 7.12134 30.338C7.28383 30.4624 7.50337 30.5246 7.77996 30.5246ZM7.28729 31.6282C6.73066 31.6282 6.27256 31.471 5.913 31.1567C5.54653 30.8355 5.36328 30.4227 5.36328 29.9184C5.36328 29.4037 5.5569 28.9995 5.94412 28.706C6.32442 28.4192 6.88105 28.2535 7.61401 28.2086L9.04015 28.1205V27.7422C9.04015 27.4694 8.95199 27.2586 8.77567 27.1102C8.59934 26.9651 8.35388 26.8926 8.03926 26.8926C7.76958 26.8926 7.54313 26.9581 7.35989 27.0894C7.18011 27.2172 7.0712 27.3865 7.03318 27.5972H5.64852C5.66926 27.0514 5.90436 26.6093 6.35381 26.2707C6.80672 25.9288 7.38929 25.7578 8.10149 25.7578C8.83445 25.7578 9.42219 25.9305 9.86473 26.2759C10.3073 26.6213 10.5285 27.0791 10.5285 27.6489V31.5608H9.06609V30.6801H9.03497C8.88285 30.9736 8.64429 31.2068 8.3193 31.3795C8.00469 31.5453 7.66068 31.6282 7.28729 31.6282Z" fill="white"/>
<path d="M11.5503 25.856H13.0128V26.8767H13.044C13.3793 26.141 13.9912 25.7731 14.8798 25.7731C15.5124 25.7731 16.0103 25.9613 16.3734 26.3378C16.7329 26.7143 16.9127 27.2359 16.9127 27.9026V31.5605H15.3984V28.2187C15.3984 27.8387 15.3015 27.5468 15.108 27.343C14.9109 27.1358 14.6343 27.0321 14.2782 27.0321C13.9152 27.0321 13.623 27.1496 13.4017 27.3845C13.1771 27.6194 13.0646 27.9268 13.0646 28.3068V31.5605H11.5503V25.856Z" fill="white"/>
<path d="M19.8375 24.5868V25.8562H20.8954V27.0012H19.8375V29.7732C19.8375 30.2084 20.064 30.426 20.5169 30.426C20.6656 30.426 20.7917 30.4174 20.8954 30.4001V31.5193C20.688 31.5607 20.4443 31.5815 20.1642 31.5815C19.5039 31.5815 19.032 31.4606 18.7485 31.2188C18.4649 30.9771 18.3232 30.5781 18.3232 30.0219V27.0012H17.5505V25.8562H18.3232V24.5868H19.8375Z" fill="white"/>
<path d="M23.9189 30.5246C24.275 30.5246 24.5724 30.4261 24.8108 30.2293C25.0564 30.029 25.179 29.775 25.179 29.4676V29.0479L23.9811 29.1308C23.3346 29.1722 23.0114 29.4089 23.0114 29.8406C23.0114 30.0514 23.0943 30.2171 23.2603 30.338C23.4228 30.4624 23.6423 30.5246 23.9189 30.5246ZM23.4262 31.6282C22.8696 31.6282 22.4115 31.471 22.052 31.1567C21.6855 30.8355 21.5022 30.4227 21.5022 29.9184C21.5022 29.4037 21.6958 28.9995 22.0831 28.706C22.4634 28.4192 23.02 28.2535 23.7529 28.2086L25.179 28.1205V27.7422C25.179 27.4694 25.091 27.2586 24.9145 27.1102C24.7382 26.9651 24.4928 26.8926 24.1781 26.8926C23.9085 26.8926 23.682 26.9581 23.4989 27.0894C23.3191 27.2172 23.2101 27.3865 23.1721 27.5972H21.7875C21.8082 27.0514 22.0433 26.6093 22.4928 26.2707C22.9456 25.9288 23.5283 25.7578 24.2404 25.7578C24.9733 25.7578 25.5612 25.9305 26.0037 26.2759C26.4461 26.6213 26.6675 27.0791 26.6675 27.6489V31.5608H25.205V30.6801H25.1739C25.0218 30.9736 24.7832 31.2068 24.4582 31.3795C24.1436 31.5453 23.7996 31.6282 23.4262 31.6282Z" fill="white"/>
<path d="M27.5905 27.535C27.5905 26.9996 27.8083 26.5696 28.244 26.2448C28.6795 25.9202 29.2587 25.7578 29.9812 25.7578C30.6865 25.7578 31.2552 25.9236 31.6874 26.2553C32.1196 26.5834 32.3409 27.0203 32.3512 27.5661H30.951C30.9337 27.3416 30.8369 27.1619 30.6606 27.0272C30.4843 26.8959 30.2509 26.8304 29.9605 26.8304C29.6874 26.8304 29.4679 26.8856 29.3019 26.9961C29.1359 27.1102 29.053 27.2586 29.053 27.4418C29.053 27.7215 29.307 27.9202 29.8153 28.0376L30.8888 28.2708C31.4627 28.402 31.8723 28.5868 32.1179 28.8251C32.3668 29.0635 32.4912 29.3951 32.4912 29.8199C32.4912 30.3726 32.2596 30.8182 31.7964 31.1567C31.333 31.4918 30.7263 31.6593 29.976 31.6593C29.2328 31.6593 28.6328 31.4918 28.1765 31.1567C27.7305 30.832 27.4885 30.3915 27.4504 29.8355H28.9284C29.0045 30.3363 29.3675 30.5868 30.0175 30.5868C30.3183 30.5868 30.5552 30.5315 30.728 30.4209C30.9008 30.3139 30.9873 30.1671 30.9873 29.9806C30.9873 29.832 30.9337 29.7146 30.8265 29.6282C30.7159 29.5419 30.5309 29.4676 30.2716 29.4054L29.2188 29.1671C28.1333 28.9219 27.5905 28.3778 27.5905 27.535Z" fill="white"/>
<path d="M33.9797 33.6433C33.672 33.6433 33.4801 33.6363 33.404 33.6225V32.4516C33.4558 32.4619 33.5699 32.4671 33.7462 32.4671C34.3063 32.4671 34.6435 32.2495 34.7576 31.8143L34.8094 31.5967L32.8076 25.8559H34.4672L35.7014 30.3324H35.7325L36.972 25.8559H38.5692L36.5934 31.6744C36.3514 32.3998 36.0333 32.9093 35.6392 33.2028C35.2484 33.4965 34.6953 33.6433 33.9797 33.6433Z" fill="white"/>
<path d="M46.4676 31.5608V28.4106H43.0967V31.5608H41.5305V24.0843H43.0967V27.1205H46.4676V24.0843H48.0338V31.5608H46.4676Z" fill="white"/>
<path d="M51.7728 31.6593C50.905 31.6593 50.2187 31.3967 49.7139 30.8717C49.2092 30.3467 48.9568 29.6247 48.9568 28.706C48.9568 27.7975 49.2109 27.0773 49.7191 26.5453C50.2274 26.0204 50.9119 25.7578 51.7728 25.7578C52.6371 25.7578 53.3217 26.0204 53.8264 26.5453C54.3346 27.0739 54.5888 27.794 54.5888 28.706C54.5888 29.6282 54.3364 30.3519 53.8316 30.8769C53.3303 31.3985 52.644 31.6593 51.7728 31.6593ZM51.7728 30.4936C52.1739 30.4936 52.4867 30.338 52.7114 30.0272C52.9362 29.7128 53.0485 29.2725 53.0485 28.706C53.0485 28.1464 52.9344 27.7077 52.7062 27.3899C52.4815 27.0756 52.1704 26.9184 51.7728 26.9184C51.3717 26.9184 51.0588 27.0756 50.834 27.3899C50.6059 27.7077 50.4918 28.1464 50.4918 28.706C50.4918 29.2725 50.6059 29.7128 50.834 30.0272C51.0588 30.338 51.3717 30.4936 51.7728 30.4936Z" fill="white"/>
<path d="M55.4031 25.8559H56.8656V26.8766H56.8966C57.0937 26.1512 57.5466 25.7885 58.2554 25.7885C58.4248 25.7885 58.5665 25.8075 58.6806 25.8455V27.1874C58.5457 27.1252 58.3643 27.0942 58.1361 27.0942C57.7523 27.0942 57.4533 27.2065 57.2389 27.4309C57.0246 27.6555 56.9174 27.968 56.9174 28.3688V31.5604H55.4031V25.8559Z" fill="white"/>
<path d="M59.2458 27.535C59.2458 26.9996 59.4636 26.5696 59.8992 26.2448C60.3349 25.9202 60.9139 25.7578 61.6365 25.7578C62.3419 25.7578 62.9105 25.9236 63.3427 26.2553C63.7748 26.5834 63.9961 27.0203 64.0066 27.5661H62.6063C62.589 27.3416 62.4922 27.1619 62.3159 27.0272C62.1395 26.8959 61.9062 26.8304 61.6158 26.8304C61.3426 26.8304 61.1231 26.8856 60.9572 26.9961C60.7912 27.1102 60.7082 27.2586 60.7082 27.4418C60.7082 27.7215 60.9623 27.9202 61.4706 28.0376L62.5441 28.2708C63.118 28.402 63.5277 28.5868 63.7731 28.8251C64.0221 29.0635 64.1465 29.3951 64.1465 29.8199C64.1465 30.3726 63.9149 30.8182 63.4516 31.1567C62.9884 31.4918 62.3816 31.6593 61.6314 31.6593C60.888 31.6593 60.2882 31.4918 59.8318 31.1567C59.3858 30.832 59.1438 30.3915 59.1057 29.8355H60.5838C60.6599 30.3363 61.0228 30.5868 61.6728 30.5868C61.9737 30.5868 62.2105 30.5315 62.3833 30.4209C62.5562 30.3139 62.6426 30.1671 62.6426 29.9806C62.6426 29.832 62.589 29.7146 62.4818 29.6282C62.3712 29.5419 62.1862 29.4676 61.927 29.4054L60.8742 29.1671C59.7886 28.9219 59.2458 28.3778 59.2458 27.535Z" fill="white"/>
<path d="M67.4814 26.8873C67.1356 26.8873 66.8469 27.0013 66.6153 27.2293C66.3871 27.4573 66.2592 27.7543 66.2315 28.1205H68.6949C68.681 27.7475 68.5634 27.4486 68.3422 27.2241C68.1209 26.9996 67.834 26.8873 67.4814 26.8873ZM70.1106 29.8199C70.0277 30.3726 69.7494 30.8164 69.2757 31.1515C68.802 31.49 68.2178 31.6593 67.5228 31.6593C66.655 31.6593 65.9704 31.3985 65.4691 30.8769C64.9713 30.3553 64.7224 29.6403 64.7224 28.7319C64.7224 27.8234 64.9696 27.1015 65.464 26.5661C65.9618 26.0272 66.6291 25.7578 67.4658 25.7578C68.2886 25.7578 68.9421 26.0134 69.4261 26.5247C69.9136 27.0359 70.1573 27.725 70.1573 28.5919V29.0582H66.216V29.1516C66.216 29.5626 66.3387 29.896 66.5842 30.1515C66.8296 30.4037 67.1511 30.5298 67.5487 30.5298C67.8357 30.5298 68.0829 30.4658 68.2904 30.338C68.5013 30.2137 68.643 30.041 68.7156 29.8199H70.1106Z" fill="white"/>
<path d="M70.9714 25.8559H72.4339V26.8766H72.465C72.6621 26.1512 73.115 25.7885 73.8238 25.7885C73.9931 25.7885 74.1349 25.8075 74.249 25.8455V27.1874C74.1141 27.1252 73.9326 27.0942 73.7045 27.0942C73.3207 27.0942 73.0216 27.2065 72.8073 27.4309C72.5929 27.6555 72.4858 27.968 72.4858 28.3688V31.5604H70.9714V25.8559Z" fill="white"/>
<path d="M77.0131 30.5246C77.3692 30.5246 77.6666 30.4261 77.9051 30.2293C78.1506 30.029 78.2733 29.775 78.2733 29.4676V29.0479L77.0754 29.1308C76.4288 29.1722 76.1056 29.4089 76.1056 29.8406C76.1056 30.0514 76.1885 30.2171 76.3545 30.338C76.517 30.4624 76.7365 30.5246 77.0131 30.5246ZM76.5205 31.6282C75.9639 31.6282 75.5058 31.471 75.1462 31.1567C74.7797 30.8355 74.5964 30.4227 74.5964 29.9184C74.5964 29.4037 74.79 28.9995 75.1773 28.706C75.5576 28.4192 76.1142 28.2535 76.8472 28.2086L78.2733 28.1205V27.7422C78.2733 27.4694 78.1852 27.2586 78.0089 27.1102C77.8325 26.9651 77.587 26.8926 77.2725 26.8926C77.0027 26.8926 76.7763 26.9581 76.5931 27.0894C76.4133 27.2172 76.3043 27.3865 76.2663 27.5972H74.8817C74.9025 27.0514 75.1376 26.6093 75.587 26.2707C76.0399 25.9288 76.6225 25.7578 77.3347 25.7578C78.0676 25.7578 78.6554 25.9305 79.0979 26.2759C79.5405 26.6213 79.7617 27.0791 79.7617 27.6489V31.5608H78.2993V30.6801H78.2681C78.1161 30.9736 77.8775 31.2068 77.5525 31.3795C77.2378 31.5453 76.8938 31.6282 76.5205 31.6282Z" fill="white"/>
<path d="M84.5329 27.9599C84.4914 27.6559 84.3704 27.4141 84.1699 27.2345C83.9625 27.0445 83.698 26.9495 83.3765 26.9495C82.9858 26.9495 82.6763 27.105 82.4482 27.4159C82.22 27.7302 82.1059 28.1602 82.1059 28.706C82.1059 29.2587 82.22 29.6904 82.4482 30.0012C82.6763 30.3087 82.9875 30.4624 83.3816 30.4624C84.0489 30.4624 84.4344 30.1377 84.5381 29.4884H85.9487C85.9038 30.1515 85.6496 30.6783 85.1864 31.0686C84.7197 31.4624 84.1129 31.6593 83.3661 31.6593C82.5087 31.6593 81.8293 31.3967 81.328 30.8717C80.8232 30.3398 80.5708 29.6179 80.5708 28.706C80.5708 27.8044 80.8232 27.0877 81.328 26.5558C81.8293 26.0237 82.5052 25.7578 83.3557 25.7578C84.1094 25.7578 84.7231 25.9668 85.1967 26.3848C85.6566 26.7889 85.9055 27.314 85.9435 27.9599H84.5329Z" fill="white"/>
<path d="M86.7318 25.8562H88.2461V31.5607H86.7318V25.8562ZM87.489 25.2344C87.2642 25.2344 87.0724 25.1584 86.9133 25.0064C86.7543 24.8544 86.6748 24.6662 86.6748 24.4416C86.6748 24.2172 86.7543 24.0289 86.9133 23.8769C87.0724 23.7283 87.2642 23.6542 87.489 23.6542C87.7171 23.6542 87.9108 23.7283 88.0698 23.8769C88.2289 24.0289 88.3083 24.2172 88.3083 24.4416C88.3083 24.6662 88.2289 24.8544 88.0698 25.0064C87.9108 25.1584 87.7171 25.2344 87.489 25.2344Z" fill="white"/>
<path d="M89.2988 25.856H90.7613V26.8767H90.7924C91.1277 26.141 91.7397 25.7731 92.6282 25.7731C93.261 25.7731 93.7588 25.9613 94.1218 26.3378C94.4814 26.7143 94.6611 27.2359 94.6611 27.9026V31.5605H93.1468V28.2187C93.1468 27.8387 93.05 27.5468 92.8564 27.343C92.6593 27.1358 92.3828 27.0321 92.0266 27.0321C91.6636 27.0321 91.3715 27.1496 91.1503 27.3845C90.9255 27.6194 90.8132 27.9268 90.8132 28.3068V31.5605H89.2988V25.856Z" fill="white"/>
<path d="M98.2859 30.3532C98.6801 30.3532 98.9947 30.2046 99.2298 29.9076C99.4649 29.6105 99.5824 29.2081 99.5824 28.7004C99.5824 28.1857 99.4649 27.7764 99.2298 27.4725C98.9947 27.165 98.6801 27.0112 98.2859 27.0112C97.8953 27.0112 97.5841 27.1633 97.3525 27.4672C97.1208 27.7712 97.005 28.1805 97.005 28.6952C97.005 29.2099 97.1208 29.6157 97.3525 29.9127C97.5806 30.2064 97.8918 30.3532 98.2859 30.3532ZM98.2703 33.6485C97.5167 33.6485 96.9012 33.4966 96.4242 33.1925C95.9402 32.8851 95.6791 32.4758 95.6411 31.9646H97.1346C97.183 32.1511 97.3161 32.3014 97.5339 32.4153C97.7483 32.5258 98.0059 32.5812 98.3067 32.5812C98.6939 32.5812 99.0016 32.4879 99.2298 32.3014C99.4615 32.1149 99.5773 31.8627 99.5773 31.5449V30.5242H99.5462C99.4078 30.8316 99.1814 31.0751 98.8668 31.2547C98.5521 31.4344 98.1891 31.5241 97.7777 31.5241C97.0758 31.5241 96.5157 31.272 96.0975 30.7676C95.6688 30.253 95.4543 29.5605 95.4543 28.69C95.4543 27.7953 95.6653 27.089 96.0871 26.5709C96.5089 26.0493 97.0811 25.7885 97.8036 25.7885C98.2082 25.7885 98.5677 25.8835 98.8823 26.0735C99.19 26.2565 99.4199 26.5087 99.5721 26.83H99.598V25.8559H101.092V31.4309C101.092 32.1079 100.836 32.6468 100.324 33.0474C99.8159 33.4482 99.1313 33.6485 98.2703 33.6485Z" fill="white"/>
</g>
</g>
</g>
<defs>
<clipPath id="clip0_15_118">
<rect width="101" height="53.8667" fill="white" transform="translate(0 0.0666676)"/>
</clipPath>
<clipPath id="clip1_15_118">
<rect width="101" height="53.8667" fill="white" transform="translate(0 0.0666676)"/>
</clipPath>
</defs>
</svg>
