<svg width="227" height="227" viewBox="0 0 227 227" fill="none" xmlns="http://www.w3.org/2000/svg">
<path d="M153.131 18.917H73.8699C39.4416 18.917 18.917 39.4416 18.917 73.8699V153.036C18.917 187.559 39.4416 208.084 73.8699 208.084H153.036C187.464 208.084 207.989 187.559 207.989 153.131V73.8699C208.084 39.4416 187.559 18.917 153.131 18.917ZM86.1657 159.846C86.1657 162.494 84.0849 164.575 81.4366 164.575H55.0478C52.3995 164.575 50.3187 162.494 50.3187 159.846V116.149C50.3187 110.19 55.1424 105.366 61.1012 105.366H81.4366C84.0849 105.366 86.1657 107.447 86.1657 110.095V159.846ZM131.377 159.846C131.377 162.494 129.296 164.575 126.647 164.575H100.259C97.6103 164.575 95.5295 162.494 95.5295 159.846V73.2078C95.5295 67.2491 100.353 62.4253 106.312 62.4253H120.689C126.647 62.4253 131.471 67.2491 131.471 73.2078V159.846H131.377ZM176.682 159.846C176.682 162.494 174.601 164.575 171.953 164.575H145.564C142.916 164.575 140.835 162.494 140.835 159.846V126.269C140.835 123.621 142.916 121.54 145.564 121.54H165.899C171.858 121.54 176.682 126.364 176.682 132.322V159.846Z" fill="url(#paint0_linear_15_293)"/>
<defs>
<linearGradient id="paint0_linear_15_293" x1="119.7" y1="-23.9997" x2="119.7" y2="191.417" gradientUnits="userSpaceOnUse">
<stop stop-color="#2C2C2C"/>
<stop offset="0.780107" stop-color="#3A8A52"/>
<stop offset="0.966346" stop-color="#46A65F"/>
</linearGradient>
</defs>
</svg>
