<svg width="227" height="227" viewBox="0 0 227 227" fill="none" xmlns="http://www.w3.org/2000/svg">
<path d="M120.594 150.579H126.742C132.89 150.579 137.997 145.093 137.997 138.473C137.997 130.244 135.065 128.636 130.241 126.933L120.688 123.623V150.579H120.594Z" fill="url(#paint0_linear_15_218)"/>
<path d="M113.216 17.974C61.0057 18.1632 18.727 60.6311 18.9162 112.841C19.1053 165.051 61.5732 207.33 113.783 207.141C165.993 206.952 208.272 164.484 208.083 112.274C207.894 60.0636 165.426 17.8795 113.216 17.974ZM134.875 113.503C142.253 116.057 152.184 121.543 152.184 138.473C152.184 153.039 140.739 164.767 126.741 164.767H120.593V170.253C120.593 174.131 117.377 177.347 113.499 177.347C109.622 177.347 106.406 174.131 106.406 170.253V164.767H103.001C87.4891 164.767 74.9095 151.715 74.9095 135.636C74.9095 131.758 78.1253 128.542 82.0032 128.542C85.8812 128.542 89.097 131.758 89.097 135.636C89.097 143.864 95.3395 150.58 103.001 150.58H106.406V118.611L92.1237 113.503C84.7462 110.949 74.8149 105.464 74.8149 88.5332C74.8149 73.9674 86.2595 62.239 100.258 62.239H106.406V56.7532C106.406 52.8753 109.622 49.6595 113.499 49.6595C117.377 49.6595 120.593 52.8753 120.593 56.7532V62.239H123.998C139.51 62.239 152.089 75.2915 152.089 91.3707C152.089 95.2486 148.874 98.4645 144.996 98.4645C141.118 98.4645 137.902 95.2486 137.902 91.3707C137.902 83.142 131.659 76.4265 123.998 76.4265H120.593V108.396L134.875 113.503Z" fill="url(#paint1_linear_15_218)"/>
<path d="M89.0979 88.6261C89.0979 96.8548 92.03 98.4627 96.8537 100.165L106.407 103.476V76.4248H100.259C94.1108 76.4248 89.0979 81.9106 89.0979 88.6261Z" fill="url(#paint2_linear_15_218)"/>
<defs>
<linearGradient id="paint0_linear_15_218" x1="129.87" y1="117.507" x2="129.87" y2="148.204" gradientUnits="userSpaceOnUse">
<stop stop-color="#2C2C2C"/>
<stop offset="0.780107" stop-color="#3A8A52"/>
<stop offset="0.966346" stop-color="#46A65F"/>
</linearGradient>
<linearGradient id="paint1_linear_15_218" x1="119.75" y1="-24.943" x2="119.75" y2="190.475" gradientUnits="userSpaceOnUse">
<stop stop-color="#2C2C2C"/>
<stop offset="0.780107" stop-color="#3A8A52"/>
<stop offset="0.966346" stop-color="#46A65F"/>
</linearGradient>
<linearGradient id="paint2_linear_15_218" x1="98.3241" y1="70.2877" x2="98.3241" y2="101.092" gradientUnits="userSpaceOnUse">
<stop stop-color="#2C2C2C"/>
<stop offset="0.780107" stop-color="#3A8A52"/>
<stop offset="0.966346" stop-color="#46A65F"/>
</linearGradient>
</defs>
</svg>
