<svg width="110" height="110" viewBox="0 0 110 110" fill="none" xmlns="http://www.w3.org/2000/svg">
<path d="M54.7487 9.33179C29.6787 9.33179 9.33203 29.6785 9.33203 54.7485C9.33203 79.8185 29.6787 100.165 54.7487 100.165C79.8187 100.165 100.165 79.8185 100.165 54.7485C100.165 29.6785 79.8187 9.33179 54.7487 9.33179ZM39.8974 35.0376C43.5762 35.0376 46.6191 38.0351 46.6191 41.7593C46.6191 45.438 43.6216 48.481 39.8974 48.481C36.2187 48.481 33.1758 45.4835 33.1758 41.7593C33.1758 38.0351 36.1733 35.0376 39.8974 35.0376ZM40.4425 72.0068C39.7612 72.688 38.8983 73.006 38.0354 73.006C37.1724 73.006 36.3095 72.688 35.6283 72.0068C34.3112 70.6897 34.3112 68.5097 35.6283 67.1926L65.3762 37.4447C66.6933 36.1276 68.8733 36.1276 70.1904 37.4447C71.5075 38.7618 71.5075 40.9418 70.1904 42.2589L40.4425 72.0068ZM69.6 74.4593C65.9212 74.4593 62.8783 71.4618 62.8783 67.7376C62.8783 64.0589 65.8758 61.016 69.6 61.016C73.2787 61.016 76.3216 64.0135 76.3216 67.7376C76.3216 71.4618 73.3241 74.4593 69.6 74.4593Z" fill="url(#paint0_linear_15_245)"/>
<defs>
<linearGradient id="paint0_linear_15_245" x1="57.7498" y1="-11.2758" x2="57.7498" y2="92.1622" gradientUnits="userSpaceOnUse">
<stop stop-color="#2C2C2C"/>
<stop offset="0.780107" stop-color="#3A8A52"/>
<stop offset="0.966346" stop-color="#46A65F"/>
</linearGradient>
</defs>
</svg>
